<svg width="76" height="56" viewBox="0 0 76 56" fill="none" xmlns="http://www.w3.org/2000/svg">
<path d="M16.6214 14.9086L25.1269 24.8426L37.203 19.8232L30.3835 30.9822L38.889 40.9162L26.1689 37.8788L19.3494 49.0378L18.3074 36.0016L5.58723 32.9642L17.6634 27.9448L16.6214 14.9086Z" fill="white"/>
<path d="M42.2155 0.864034L44.7187 8.99692L53.2271 9.12942L46.2658 14.0233L48.769 22.1562L41.9635 17.0479L35.0022 21.9418L37.7574 13.8908L30.9519 8.78254L39.4603 8.91504L42.2155 0.864034Z" fill="white"/>
<path d="M67.4472 3.87059L67.0403 10.1157L72.854 12.4326L66.7888 13.9754L66.3818 20.2205L63.0402 14.9289L56.975 16.4717L60.9751 11.6585L57.6335 6.36691L63.4472 8.68379L67.4472 3.87059Z" fill="white"/>
</svg>
